<?xml version="1.0" encoding="UTF-8"?>
<svg width="24" height="24" viewBox="0 0 24 24" fill="none" xmlns="http://www.w3.org/2000/svg">
  <!-- Bowl -->
  <path d="M5 10C5 7.23858 7.23858 5 10 5H14C16.7614 5 19 7.23858 19 10V11H5V10Z" stroke="white" stroke-width="2"/>
  <path d="M4 11H20C20 15.4183 16.4183 19 12 19C7.58172 19 4 15.4183 4 11Z" stroke="white" stroke-width="2"/>
  
  <!-- Chopsticks -->
  <rect x="10" y="2" width="1" height="8" rx="0.5" fill="white"/>
  <rect x="13" y="2" width="1" height="8" rx="0.5" fill="white"/>
  
  <!-- Steam -->
  <path d="M8 8C8 8 7 6 8 5" stroke="white" stroke-width="1"/>
  <path d="M12 8C12 8 11 5 12 3" stroke="white" stroke-width="1"/>
  <path d="M16 8C16 8 17 6 16 5" stroke="white" stroke-width="1"/>
</svg>