<?xml version="1.0" encoding="UTF-8"?>
<svg width="600" height="400" viewBox="0 0 600 400" fill="none" xmlns="http://www.w3.org/2000/svg">
  <rect width="600" height="400" fill="#F5F5F5"/>
  
  <!-- Sky gradient -->
  <rect width="600" height="400" fill="url(#skyGradient)"/>
  
  <!-- Ground -->
  <rect y="300" width="600" height="100" fill="#E6E6E6"/>
  
  <!-- Modern buildings -->
  <!-- Central tower -->
  <rect x="260" y="80" width="80" height="220" fill="#4169E1"/>
  <rect x="270" y="90" width="60" height="200" fill="#87CEEB" opacity="0.7"/>
  
  <!-- Left tower -->
  <rect x="180" y="150" width="60" height="150" fill="#D94141"/>
  <rect x="190" y="160" width="40" height="130" fill="#F8F5F0" opacity="0.8"/>
  
  <!-- Right tower -->
  <rect x="360" y="120" width="70" height="180" fill="#D94141"/>
  <rect x="370" y="130" width="50" height="160" fill="#F8F5F0" opacity="0.8"/>
  
  <!-- Small buildings -->
  <rect x="100" y="200" width="60" height="100" fill="#4169E1"/>
  <rect x="110" y="210" width="40" height="80" fill="#87CEEB" opacity="0.7"/>
  
  <rect x="440" y="180" width="80" height="120" fill="#4169E1"/>
  <rect x="450" y="190" width="60" height="100" fill="#87CEEB" opacity="0.7"/>
  
  <!-- Roads -->
  <rect y="350" width="600" height="20" fill="#333"/>
  <rect x="150" y="350" width="20" height="50" fill="#333"/>
  <rect x="300" y="350" width="20" height="50" fill="#333"/>
  <rect x="450" y="350" width="20" height="50" fill="#333"/>
  
  <!-- Tower details -->
  <rect x="295" y="100" width="10" height="20" fill="#D94141"/>
  <rect x="295" y="130" width="10" height="20" fill="#D94141"/>
  <rect x="295" y="160" width="10" height="20" fill="#D94141"/>
  <rect x="295" y="190" width="10" height="20" fill="#D94141"/>
  <rect x="295" y="220" width="10" height="20" fill="#D94141"/>
  <rect x="295" y="250" width="10" height="20" fill="#D94141"/>
  
  <!-- Star on central tower -->
  <path d="M300 60L305 70L315 70L307 77L310 87L300 82L290 87L293 77L285 70L295 70L300 60Z" fill="#D94141"/>
  
  <!-- Foreground statues/monuments -->
  <rect x="150" y="280" width="20" height="20" fill="#A9A9A9"/>
  <rect x="450" y="280" width="20" height="20" fill="#A9A9A9"/>
  
  <!-- People -->
  <circle cx="200" cy="340" r="5" fill="#333"/>
  <circle cx="220" cy="340" r="5" fill="#333"/>
  <circle cx="400" cy="340" r="5" fill="#333"/>
  <circle cx="420" cy="340" r="5" fill="#333"/>
  
  <defs>
    <linearGradient id="skyGradient" x1="300" y1="0" x2="300" y2="300" gradientUnits="userSpaceOnUse">
      <stop stop-color="#87CEEB"/>
      <stop offset="1" stop-color="#E6EEF9"/>
    </linearGradient>
  </defs>
</svg>