<?xml version="1.0" encoding="UTF-8"?>
<svg width="600" height="400" viewBox="0 0 600 400" fill="none" xmlns="http://www.w3.org/2000/svg">
  <rect width="600" height="400" fill="#F8F5F0"/>
  <path d="M200 150C200 150 250 100 300 150C350 200 400 150 400 150" stroke="#D94141" stroke-width="5"/>
  <path d="M150 200C150 200 200 150 250 200C300 250 350 200 350 200" stroke="#4169E1" stroke-width="5"/>
  <path d="M250 250C250 250 300 200 350 250C400 300 450 250 450 250" stroke="#5BAE4A" stroke-width="5"/>
  <rect x="150" y="100" width="5" height="200" fill="#333"/>
  <rect x="250" y="100" width="5" height="200" fill="#333"/>
  <rect x="350" y="100" width="5" height="200" fill="#333"/>
  <rect x="450" y="100" width="5" height="200" fill="#333"/>
  <circle cx="200" cy="150" r="10" fill="#D94141"/>
  <circle cx="300" cy="150" r="10" fill="#4169E1"/>
  <circle cx="400" cy="150" r="10" fill="#5BAE4A"/>
  <circle cx="150" cy="200" r="10" fill="#D94141"/>
  <circle cx="250" cy="200" r="10" fill="#4169E1"/>
  <circle cx="350" cy="200" r="10" fill="#5BAE4A"/>
  <circle cx="250" cy="250" r="10" fill="#D94141"/>
  <circle cx="350" cy="250" r="10" fill="#4169E1"/>
  <circle cx="450" cy="250" r="10" fill="#5BAE4A"/>
  <text x="200" y="80" font-family="sans-serif" font-size="24" fill="#333">전통 음악</text>
</svg>