<?xml version="1.0" encoding="UTF-8"?>
<svg width="600" height="400" viewBox="0 0 600 400" fill="none" xmlns="http://www.w3.org/2000/svg">
  <rect width="600" height="400" fill="#F8F5F0"/>
  
  <!-- Hospital Building -->
  <rect x="200" y="150" width="200" height="150" fill="#E6E6E6" stroke="#333" stroke-width="2"/>
  
  <!-- Windows -->
  <rect x="230" y="180" width="30" height="40" fill="#A5D6E7" stroke="#333"/>
  <rect x="340" y="180" width="30" height="40" fill="#A5D6E7" stroke="#333"/>
  <rect x="230" y="240" width="30" height="40" fill="#A5D6E7" stroke="#333"/>
  <rect x="340" y="240" width="30" height="40" fill="#A5D6E7" stroke="#333"/>
  
  <!-- Door -->
  <rect x="285" y="250" width="30" height="50" fill="#A0522D"/>
  
  <!-- Red Cross Symbol -->
  <rect x="280" y="100" width="40" height="40" fill="#D94141" rx="5"/>
  <rect x="290" y="90" width="20" height="60" fill="#FFFFFF"/>
  <rect x="270" y="110" width="60" height="20" fill="#FFFFFF"/>
  
  <!-- Medical Symbol -->
  <circle cx="140" cy="250" r="40" fill="#4169E1" opacity="0.8"/>
  <path d="M140 220V280" stroke="white" stroke-width="6"/>
  <path d="M110 250H170" stroke="white" stroke-width="6"/>
  <path d="M125 230L155 270" stroke="white" stroke-width="6"/>
  <path d="M155 230L125 270" stroke="white" stroke-width="6"/>
  
  <!-- Medical Equipment -->
  <rect x="450" y="200" width="50" height="20" fill="#5BAE4A" rx="5"/>
  <rect x="460" y="220" width="30" height="60" fill="#5BAE4A" rx="5"/>
  <circle cx="475" cy="320" r="20" fill="#5BAE4A"/>
  <path d="M475 300V340" stroke="#333" stroke-width="2"/>
  <path d="M455 320H495" stroke="#333" stroke-width="2"/>
  
  <text x="200" y="60" font-family="sans-serif" font-size="24" fill="#333">보건의료</text>
</svg>