<?xml version="1.0" encoding="UTF-8"?>
<svg xmlns="http://www.w3.org/2000/svg" width="100" height="100" viewBox="0 0 100 100" fill="none">
  <!-- Circle background -->
  <circle cx="50" cy="50" r="45" fill="#D94141"/>
  
  <!-- Outer ring -->
  <circle cx="50" cy="50" r="45" stroke="white" stroke-width="3" fill="none"/>
  
  <!-- Inner decorative elements -->
  <circle cx="50" cy="50" r="35" stroke="white" stroke-width="1.5" fill="none"/>
  
  <!-- Stylized torch/flame -->
  <path d="M50 15 L50 85" stroke="white" stroke-width="5" stroke-linecap="round"/>
  
  <!-- Flame top -->
  <path d="M50 15 Q40 25 35 20 Q30 15 38 12 Q42 8 50 15 Q58 8 62 12 Q70 15 65 20 Q60 25 50 15" fill="white"/>
  
  <!-- Workers brush and hammer (simplified) -->
  <path d="M35 60 L65 60" stroke="white" stroke-width="2.5" stroke-linecap="round"/>
  <path d="M40 70 L60 70" stroke="white" stroke-width="2.5" stroke-linecap="round"/>
  <path d="M38 50 L62 50" stroke="white" stroke-width="2.5" stroke-linecap="round"/>
  
  <!-- Brush stroke -->
  <path d="M35 40 Q50 35 65 40" stroke="white" stroke-width="2" fill="none"/>
  
  <!-- Rice stalk (simplified) -->
  <path d="M30 75 Q50 65 70 75" stroke="white" stroke-width="1.5" fill="none"/>
</svg>