<?xml version="1.0" encoding="UTF-8"?>
<svg width="600" height="300" viewBox="0 0 600 300" fill="none" xmlns="http://www.w3.org/2000/svg">
  <!-- Background -->
  <rect width="600" height="300" fill="#F8F8F8"/>
  
  <!-- Decorative elements -->
  <rect x="50" y="50" width="200" height="200" rx="10" fill="#4169E1" opacity="0.1"/>
  <rect x="350" y="50" width="200" height="200" rx="10" fill="#D94141" opacity="0.1"/>
  
  <!-- Prompt template illustration -->
  <rect x="70" y="70" width="160" height="160" rx="5" fill="white" stroke="#4169E1" stroke-width="2"/>
  <rect x="85" y="90" width="130" height="10" rx="2" fill="#4169E1" opacity="0.7"/>
  <rect x="85" y="110" width="110" height="10" rx="2" fill="#4169E1" opacity="0.7"/>
  <rect x="85" y="130" width="130" height="10" rx="2" fill="#4169E1" opacity="0.7"/>
  <rect x="85" y="150" width="90" height="10" rx="2" fill="#4169E1" opacity="0.7"/>
  <rect x="85" y="170" width="110" height="10" rx="2" fill="#4169E1" opacity="0.7"/>
  <rect x="85" y="190" width="70" height="10" rx="2" fill="#4169E1" opacity="0.7"/>
  
  <!-- Arrow -->
  <path d="M250 130L350 130" stroke="#333333" stroke-width="2" stroke-dasharray="4 4"/>
  <path d="M340 120L350 130L340 140" stroke="#333333" stroke-width="2"/>
  
  <!-- Image result illustration -->
  <rect x="370" y="70" width="160" height="160" rx="5" fill="white" stroke="#D94141" stroke-width="2"/>
  
  <!-- Stylized Korean traditional building -->
  <path d="M450 100C450 100 430 110 410 110C390 110 370 100 370 100" stroke="#D94141" stroke-width="2"/>
  <rect x="400" y="110" width="100" height="70" fill="#D94141" opacity="0.7"/>
  <rect x="410" y="120" width="80" height="50" fill="white"/>
  <rect x="420" y="130" width="60" height="30" fill="#4169E1" opacity="0.5"/>
  
  <!-- Mountains -->
  <path d="M380 160C380 160 390 140 400 160C410 140 420 160 420 160C420 160 430 140 440 160C450 140 460 160 460 160C460 160 470 140 480 160C490 140 500 160 500 160" stroke="#333333" stroke-width="1"/>
  
  <!-- Text labels -->
  <text x="140" y="230" font-family="sans-serif" font-size="12" text-anchor="middle" fill="#333333">프롬프트 템플릿</text>
  <text x="450" y="230" font-family="sans-serif" font-size="12" text-anchor="middle" fill="#333333">생성된 이미지</text>
</svg>