<?xml version="1.0" encoding="UTF-8"?>
<svg width="600" height="400" viewBox="0 0 600 400" fill="none" xmlns="http://www.w3.org/2000/svg">
  <rect width="600" height="400" fill="#F8F5F0"/>
  
  <!-- Mountains in background -->
  <path d="M0 100L50 70L100 90L150 60L200 80L250 40L300 70L350 50L400 80L450 60L500 90L550 70L600 100V400H0V100Z" fill="#E6E6E6"/>
  
  <!-- Landscape -->
  <path d="M0 200L600 200V400H0V200Z" fill="#E9EFD8"/>
  
  <!-- Ceremonial arch -->
  <rect x="200" y="150" width="200" height="100" fill="#D94141" opacity="0.8"/>
  <rect x="220" y="160" width="160" height="80" fill="#F8F5F0"/>
  <rect x="240" y="170" width="120" height="60" fill="#4169E1" opacity="0.8"/>
  
  <!-- Ceremonial pillars -->
  <rect x="180" y="150" width="10" height="200" fill="#8B4513"/>
  <rect x="410" y="150" width="10" height="200" fill="#8B4513"/>
  
  <!-- People in traditional attire -->
  <circle cx="250" cy="300" r="20" fill="#D94141"/>
  <rect x="245" y="320" width="10" height="30" fill="#D94141"/>
  <rect x="235" y="340" width="30" height="10" fill="#4169E1"/>
  
  <circle cx="300" cy="290" r="20" fill="#4169E1"/>
  <rect x="295" y="310" width="10" height="30" fill="#4169E1"/>
  <rect x="285" y="330" width="30" height="20" fill="#D94141"/>
  
  <circle cx="350" cy="300" r="20" fill="#D94141"/>
  <rect x="345" y="320" width="10" height="30" fill="#D94141"/>
  <rect x="335" y="340" width="30" height="10" fill="#4169E1"/>
  
  <!-- Decorative elements -->
  <path d="M220 130C220 130 240 110 260 130" stroke="#5BAE4A" stroke-width="3"/>
  <path d="M260 130C260 130 280 110 300 130" stroke="#D94141" stroke-width="3"/>
  <path d="M300 130C300 130 320 110 340 130" stroke="#5BAE4A" stroke-width="3"/>
  <path d="M340 130C340 130 360 110 380 130" stroke="#D94141" stroke-width="3"/>
  
  <text x="200" y="60" font-family="sans-serif" font-size="24" fill="#333">전통 의례</text>
</svg>